Coordinates
version=1
nRows=18
nColumns=34
inDegrees=no

Units are S.I. units (second, meters, Newtons, ...)
If the header above contains a line with 'inDegrees', this indicates whether rotational values are in degrees (yes) or radians (no).

endheader
time	pelvis_tilt	pelvis_list	pelvis_rotation	pelvis_tx	pelvis_ty	pelvis_tz	hip_flexion_r	hip_adduction_r	hip_rotation_r	knee_angle_r	ankle_angle_r	subtalar_angle_r	mtp_angle_r	hip_flexion_l	hip_adduction_l	hip_rotation_l	knee_angle_l	ankle_angle_l	subtalar_angle_l	mtp_angle_l	lumbar_extension	lumbar_bending	lumbar_rotation	arm_flex_r	arm_add_r	arm_rot_r	elbow_flex_r	pro_sup_r	arm_flex_l	arm_add_l	arm_rot_l	elbow_flex_l	pro_sup_l
0.9	0.156104	0.0681176	-0.0395915	0.995107	1.06122	-0.313209	0.40226	-0.168513	-0.0939295	1.22324	-0.13531	-0.215305	-0.0213439	-0.110693	0.0673518	-0.321111	0.242012	0.273354	0.471808	-0.0449053	-0.383636	-0.0792462	-0.00966263	0.0240035	-0.174312	-0.217095	0.615029	2.07863	0.196302	-0.23464	0.101136	0.811151	2.07179
0.91	0.156619	0.0666702	-0.0376826	1.00696	1.0616	-0.313778	0.413691	-0.166277	-0.103376	1.1851	-0.127049	-0.213167	-0.0214125	-0.129355	0.0669509	-0.328078	0.231579	0.277025	0.488703	-0.044829	-0.385785	-0.0754205	-0.0129905	0.0194196	-0.177049	-0.221207	0.61385	2.07812	0.214525	-0.236331	0.108206	0.822682	2.07175
0.92	0.157578	0.0656196	-0.0362956	1.01885	1.06183	-0.314273	0.421738	-0.164304	-0.113449	1.14107	-0.119683	-0.212177	-0.021481	-0.148895	0.0670743	-0.335732	0.220621	0.280117	0.505343	-0.0447527	-0.388411	-0.0721611	-0.0156111	0.0151208	-0.179956	-0.224915	0.612071	2.07762	0.23225	-0.238131	0.115643	0.83475	2.07035
0.93	0.158795	0.0649499	-0.0353738	1.03079	1.06188	-0.314696	0.426403	-0.162469	-0.12441	1.09078	-0.113251	-0.211604	-0.0215496	-0.169176	0.067827	-0.343713	0.209015	0.282652	0.521006	-0.0446764	-0.391266	-0.0694376	-0.0176124	0.0111009	-0.182983	-0.228252	0.609633	2.07713	0.249345	-0.240021	0.123425	0.847315	2.06768
0.94	0.160027	0.0646308	-0.0348321	1.04281	1.06175	-0.315049	0.427763	-0.160612	-0.136561	1.03384	-0.10767	-0.210399	-0.0216181	-0.189966	0.069275	-0.351634	0.1967	0.284695	0.534959	-0.0446001	-0.394051	-0.0672034	-0.0191018	0.00733536	-0.18607	-0.231278	0.606526	2.07664	0.265683	-0.241977	0.131473	0.86033	2.06396
0.95	0.161011	0.0646199	-0.0345648	1.05492	1.0614	-0.315332	0.425949	-0.158526	-0.150186	0.969895	-0.102684	-0.207204	-0.0216867	-0.210967	0.0714245	-0.359127	0.1837	0.28635	0.546584	-0.0445238	-0.39645	-0.0653954	-0.0201971	0.00378441	-0.189154	-0.234078	0.602785	2.07617	0.281141	-0.243972	0.139662	0.873743	2.05949
0.96	0.161491	0.0648707	-0.0344528	1.06713	1.06082	-0.315544	0.421123	-0.155978	-0.165478	0.898692	-0.0978498	-0.200444	-0.0217552	-0.231847	0.0742134	-0.365904	0.170142	0.287753	0.555519	-0.0444475	-0.398171	-0.0639396	-0.0210187	0.00039632	-0.192165	-0.236741	0.598486	2.07571	0.295611	-0.245984	0.147844	0.887502	2.05461
0.97	0.161256	0.0653449	-0.0343732	1.07945	1.05999	-0.315686	0.413485	-0.152728	-0.182445	0.820245	-0.0925708	-0.188499	-0.0218237	-0.252276	0.0775166	-0.37179	0.156256	0.289059	0.56174	-0.0443712	-0.398976	-0.0627607	-0.0216824	-0.00288781	-0.195036	-0.239354	0.593733	2.07525	0.308999	-0.247995	0.155864	0.901558	2.0497
0.98	0.160162	0.0660287	-0.034209	1.0919	1.0589	-0.315762	0.403294	-0.14858	-0.200832	0.735003	-0.0861751	-0.169957	-0.0218922	-0.27195	0.0811694	-0.376713	0.142372	0.290427	0.565528	-0.0442949	-0.398706	-0.061795	-0.022291	-0.00612782	-0.197702	-0.241998	0.588657	2.0748	0.32124	-0.249994	0.163585	0.915869	2.0451
0.99	0.158152	0.0669392	-0.0338596	1.10447	1.05754	-0.315774	0.390908	-0.143428	-0.22005	0.644028	-0.0780146	-0.143909	-0.0219607	-0.290608	0.084998	-0.380672	0.128889	0.292001	0.567357	-0.0442187	-0.397288	-0.0610016	-0.0229265	-0.00937664	-0.200109	-0.244749	0.583399	2.07434	0.3323	-0.251974	0.170898	0.930399	2.04109
1	0.155261	0.06811	-0.0332498	1.11718	1.05591	-0.315727	0.376826	-0.137307	-0.239161	0.549148	-0.0675748	-0.11024	-0.0220291	-0.308043	0.0888437	-0.383692	0.116249	0.293901	0.567775	-0.0441424	-0.394746	-0.0603687	-0.0236397	-0.0126717	-0.202214	-0.247682	0.578103	2.07389	0.342184	-0.253923	0.177741	0.945118	2.0379
1.01	0.151592	0.0695688	-0.0323387	1.13002	1.05402	-0.315627	0.361719	-0.130402	-0.256925	0.453015	-0.0545752	-0.069842	-0.0220976	-0.324108	0.0925677	-0.385796	0.104916	0.296211	0.567306	-0.0440662	-0.391202	-0.0599004	-0.0244392	-0.0160257	-0.204001	-0.250867	0.572912	2.07343	0.35094	-0.255825	0.184095	0.959992	2.03569
1.02	0.147303	0.0713143	-0.0311252	1.14299	1.0519	-0.315478	0.346423	-0.123038	-0.271942	0.359043	-0.0390392	-0.0246828	-0.022166	-0.338725	0.0960316	-0.387	0.095337	0.298983	0.566389	-0.04399	-0.386873	-0.0595809	-0.025281	-0.0194177	-0.205487	-0.254356	0.567958	2.07298	0.358646	-0.257641	0.189972	0.974988	2.03454
1.03	0.142608	0.0732796	-0.029649	1.15606	1.04957	-0.315285	0.331886	-0.115617	-0.282875	0.271167	-0.0213216	0.022344	-0.0222345	-0.351884	0.0990662	-0.387324	0.087919	0.302232	0.565356	-0.0439138	-0.382057	-0.0593324	-0.0260653	-0.022787	-0.206733	-0.258167	0.563358	2.07254	0.365404	-0.259312	0.1954	0.99007	2.03447
1.04	0.137761	0.0752862	-0.0279845	1.1692	1.0471	-0.315051	0.319073	-0.108536	-0.288737	0.193441	-0.00208993	0.0677989	-0.0223029	-0.363656	0.101441	-0.386819	0.0829926	0.305934	0.56444	-0.0438376	-0.377114	-0.0589817	-0.0266439	-0.0260326	-0.207851	-0.262254	0.559202	2.0721	0.371304	-0.260751	0.200388	1.0052	2.03544
1.05	0.133021	0.0770117	-0.0262352	1.18238	1.04454	-0.314772	0.308828	-0.102095	-0.289138	0.129519	0.017728	0.108245	-0.0223714	-0.374194	0.102851	-0.385591	0.0807853	0.310022	0.563805	-0.0437614	-0.372436	-0.0582511	-0.0268415	-0.0290228	-0.208993	-0.266498	0.555549	2.07166	0.3764	-0.26185	0.204904	1.02035	2.03733
1.06	0.128613	0.0780642	-0.0245273	1.19558	1.04196	-0.314449	0.301741	-0.0963998	-0.284419	0.0821214	0.0370095	0.140799	-0.0224398	-0.383733	0.102919	-0.383825	0.0813975	0.314376	0.563573	-0.0436852	-0.368411	-0.0567532	-0.0264767	-0.0316125	-0.210337	-0.270703	0.552418	2.07122	0.380672	-0.262499	0.208859	1.0355	2.04
1.07	0.124719	0.0780492	-0.0229906	1.20877	1.03942	-0.314084	0.298061	-0.0913099	-0.275569	0.052611	0.0545085	0.163518	-0.0225082	-0.392563	0.101239	-0.381777	0.0847961	0.31881	0.56385	-0.043609	-0.365361	-0.0540357	-0.0253856	-0.0336653	-0.21205	-0.274618	0.549789	2.07079	0.384006	-0.262605	0.21211	1.05064	2.04328
